<svg xmlns="http://www.w3.org/2000/svg" xmlns:xlink="http://www.w3.org/1999/xlink" width="176.209" height="34.445" viewBox="0 0 176.209 34.445">
  <defs>
    <clipPath id="clip-path">
      <rect id="Rectangle_118" data-name="Rectangle 118" width="176.209" height="34.445" fill="none"/>
    </clipPath>
  </defs>
  <g id="Logo_Footer" transform="translate(-211.5 -94.012)">
    <g id="Group_465" data-name="Group 465" transform="translate(211.5 94.012)" clip-path="url(#clip-path)">
      <path id="Path_374" data-name="Path 374" d="M278.123,127.7,268.345,114v13.7a9.563,9.563,0,0,1-6.46,0V98.151a10.564,10.564,0,0,1,6.46,0v13.482c3.833-4.438,7.58-8.919,11.2-13.482a7.665,7.665,0,0,1,4.611,0V98.5l-7.066,7.4c-1.333,1.424-2.586,2.932-4.092,4.524L284.583,127.1v.6a18.811,18.811,0,0,1-6.46,0" transform="translate(-218.995 -94.551)"/>
      <path id="Path_375" data-name="Path 375" d="M264.99,128.306a8.394,8.394,0,0,1-3.151-.55l-.046-.02V98.083l.051-.019a10.924,10.924,0,0,1,3.358-.52,9.431,9.431,0,0,1,3.156.519l.052.019v13.326c4.132-4.789,7.751-9.148,11.057-13.32l.013-.015.019-.008a6,6,0,0,1,2.183-.34,9.729,9.729,0,0,1,2.478.336l.059.015v.438l-.022.022-7.066,7.4c-.621.663-1.215,1.336-1.845,2.046-.7.786-1.416,1.6-2.2,2.433l11.565,16.64v.694l-.069.009a28.81,28.81,0,0,1-3.619.247,12.428,12.428,0,0,1-2.871-.249l-.027-.007-.017-.024-9.634-13.5v13.509l-.054.018a10.869,10.869,0,0,1-3.366.547m-3.041-.673a8.471,8.471,0,0,0,3.041.517,10.709,10.709,0,0,0,3.263-.521V113.742l9.9,13.874a13.045,13.045,0,0,0,2.8.238,28.425,28.425,0,0,0,3.53-.238v-.506l-11.609-16.7.044-.047c.8-.85,1.535-1.676,2.243-2.475.63-.713,1.225-1.384,1.848-2.049l7.045-7.381V98.2a9.583,9.583,0,0,0-2.379-.315,6.157,6.157,0,0,0-2.1.319c-3.342,4.215-7,8.621-11.186,13.468l-.138.159V98.194A9.286,9.286,0,0,0,265.2,97.7a10.972,10.972,0,0,0-3.253.492Z" transform="translate(-218.981 -94.537)"/>
      <path id="Path_376" data-name="Path 376" d="M327.976,128.041c-1.38-2.628-3.276-5.99-5.038-8.615A3.881,3.881,0,0,0,321.73,118v10.037a10.936,10.936,0,0,1-5.947,0V97.76a11.22,11.22,0,0,1,5.947,0v18.607c.13.127.213.089.385.043,2.842-2.887,5.429-5.989,8.272-9.259a5.747,5.747,0,0,1,3.66,0v.3c-2.194,2.8-4.952,4.954-7.191,7.582l3.444,5.512c1.422,2.283,2.842,4.61,4.221,7.149v.346c-4.427.85-6.545,0-6.545,0" transform="translate(-227.012 -94.513)"/>
      <path id="Path_377" data-name="Path 377" d="M318.732,128.513a10.3,10.3,0,0,1-2.988-.411l-.053-.019V97.692l.051-.019a9.461,9.461,0,0,1,2.869-.388,13.113,13.113,0,0,1,3.123.386l.06.014v18.633a.149.149,0,0,0,.1.043.581.581,0,0,0,.14-.029l.026-.006c2.263-2.3,4.352-4.723,6.564-7.288q.833-.967,1.689-1.954l.027-.02a4.457,4.457,0,0,1,1.731-.286,7.474,7.474,0,0,1,1.983.282l.058.015v.387l-.016.022a43.606,43.606,0,0,1-3.959,4.228c-1.082,1.057-2.2,2.149-3.2,3.313l3.413,5.462c1.59,2.551,2.917,4.744,4.225,7.153l.009.018v.432l-.063.012a19.722,19.722,0,0,1-3.68.379,8.51,8.51,0,0,1-2.91-.383l-.026-.011-.014-.026c-.8-1.531-2.9-5.433-5.034-8.608l-.126-.2a3.563,3.563,0,0,0-.939-1.126v9.957l-.057.016a11.008,11.008,0,0,1-3,.41m-2.884-.544a10.337,10.337,0,0,0,2.884.387,10.9,10.9,0,0,0,2.905-.389V117.858l.115.063a3.327,3.327,0,0,1,1.114,1.251c.042.068.083.134.124.2,2.122,3.162,4.212,7.043,5.027,8.594a8.872,8.872,0,0,0,2.824.363,19.435,19.435,0,0,0,3.586-.364V127.7c-1.3-2.4-2.625-4.584-4.21-7.127l-3.474-5.56.037-.044c1.01-1.185,2.146-2.294,3.244-3.367a43.587,43.587,0,0,0,3.928-4.192V107.2a7.344,7.344,0,0,0-1.884-.26,4.513,4.513,0,0,0-1.651.266c-.569.653-1.125,1.3-1.677,1.939-2.219,2.572-4.313,5-6.587,7.31l-.014.015-.066.018a.373.373,0,0,1-.415-.077l-.023-.022V97.809a12.952,12.952,0,0,0-3.026-.367,9.633,9.633,0,0,0-2.763.363Z" transform="translate(-226.998 -94.499)"/>
      <path id="Path_378" data-name="Path 378" d="M359.364,128.939a10.921,10.921,0,0,1-3.877,1.159,4.466,4.466,0,0,1-4.261-3.139,6.335,6.335,0,0,1-5.516,3.139c-3.534,0-6.159-1.933-6.159-5.68,0-4.094,2.5-5.3,7.882-6.593a10.17,10.17,0,0,0,3.147-1.119,2.078,2.078,0,0,0,.646-1.679,4.163,4.163,0,0,0-4.092-3.793c-2.757,0-5,1.9-5.256,2.671h-.3a2.512,2.512,0,0,1-.562-2.584,12.233,12.233,0,0,1,7.965-2.882c3.624,0,8.188,1.461,8.188,5.769v11.718c0,1.6.471,2.109,2.195,2.024a.87.87,0,0,1,0,.988m-8.138-10.509c-1.077.472-3.017.862-4.266,1.854a4.246,4.246,0,0,0-1.375,3.573c0,1.6.513,3.447,2.362,3.447,2.632,0,3.189-2.544,3.278-4.7Z" transform="translate(-230.547 -96.158)"/>
      <path id="Path_379" data-name="Path 379" d="M355.473,130.164a4.512,4.512,0,0,1-4.276-3.036,6.4,6.4,0,0,1-5.5,3.036c-3.847,0-6.236-2.206-6.236-5.759,0-4.075,2.449-5.351,7.94-6.67l.045-.01a9.924,9.924,0,0,0,3.078-1.1,1.991,1.991,0,0,0,.609-1.613c0-2.092-2.156-3.713-4.013-3.713-2.825,0-4.957,1.944-5.182,2.617l-.019.053h-.39l-.023-.025a2.615,2.615,0,0,1-.577-2.669l.018-.026a12.277,12.277,0,0,1,8.02-2.9,11.59,11.59,0,0,1,5.492,1.279,5.062,5.062,0,0,1,2.774,4.569v11.717c0,1.617.486,2.025,2.111,1.946l.041,0,.025.031a.956.956,0,0,1,.005,1.079l-.012.02-.021.01a10.273,10.273,0,0,1-3.91,1.167m-4.244-3.405.057.16a4.384,4.384,0,0,0,4.187,3.087,10.069,10.069,0,0,0,3.822-1.142.79.79,0,0,0,.014-.847c-1.685.077-2.232-.42-2.232-2.1V114.2a4.852,4.852,0,0,0-2.7-4.432,11.327,11.327,0,0,0-5.414-1.26,12.122,12.122,0,0,0-7.9,2.85,2.416,2.416,0,0,0,.532,2.46h.21c.354-.856,2.618-2.67,5.31-2.67,1.929,0,4.171,1.691,4.171,3.871a2.171,2.171,0,0,1-.673,1.738,10.035,10.035,0,0,1-3.138,1.124l-.044.011c-5.514,1.325-7.82,2.523-7.82,6.517,0,3.455,2.329,5.6,6.08,5.6a6.237,6.237,0,0,0,5.448-3.1Zm-3.294.61c-2.2,0-2.441-2.465-2.441-3.526a4.368,4.368,0,0,1,1.4-3.634,10.183,10.183,0,0,1,3.1-1.437c.439-.146.855-.284,1.182-.427l.111-.049v4.3c-.135,3.213-1.232,4.774-3.357,4.774m3.2-8.833c-.312.129-.689.255-1.084.386A10.034,10.034,0,0,0,347,120.333a4.222,4.222,0,0,0-1.346,3.511c0,1.013.222,3.368,2.284,3.368,2.023,0,3.07-1.511,3.2-4.62Z" transform="translate(-230.534 -96.144)"/>
      <path id="Path_380" data-name="Path 380" d="M375.219,127.507a13.268,13.268,0,0,1-4.478.985c-4.479,0-5.471-2.968-5.471-6.974V109.974h-2.928a3.686,3.686,0,0,1,0-2.757h2.928V99.9a10.181,10.181,0,0,1,5.946-2.26v9.578h3.662a3.892,3.892,0,0,1,0,2.757h-3.662V122.25c0,2.973.193,3.9,4,3.574a1.827,1.827,0,0,1,0,1.683" transform="translate(-233.897 -94.552)"/>
      <path id="Path_381" data-name="Path 381" d="M370.726,128.555c-4.89,0-5.549-3.565-5.549-7.053V110.037h-2.9l-.02-.048a3.711,3.711,0,0,1,0-2.819l.02-.046h2.9V99.851l.023-.024a10.386,10.386,0,0,1,5.995-2.283l.087-.009v9.588h3.634l.02.049a3.918,3.918,0,0,1,0,2.817l-.02.047h-3.633v12.2c0,2.53.1,3.556,2.663,3.556.362,0,.772-.02,1.254-.06l.051,0,.025.045a1.884,1.884,0,0,1,0,1.761l-.014.023-.025.009a13.212,13.212,0,0,1-4.507.99M362.38,109.88h2.953V121.5c0,6.077,2.727,6.9,5.393,6.9a13.02,13.02,0,0,0,4.426-.97,1.734,1.734,0,0,0,.006-1.537c-.465.038-.862.057-1.214.057-2.706,0-2.82-1.138-2.82-3.713V109.88h3.686a3.848,3.848,0,0,0,0-2.6h-3.686V97.71a10.346,10.346,0,0,0-5.79,2.208v7.363H362.38a3.629,3.629,0,0,0,0,2.6" transform="translate(-233.883 -94.536)"/>
      <path id="Path_382" data-name="Path 382" d="M288.388,119.723c0-6.765,3.921-11.284,10.51-11.284,6.505,0,10.6,3.958,10.6,10.338,0,6.544-3.874,11.322-10.639,11.322-6.377,0-10.468-4-10.468-10.375m6.375-.13c0,2.756.344,8.572,4.093,8.572,3.315-.089,4.264-5.342,4.264-10.079,0-4.18-1.075-7.712-3.963-7.712-3.488,0-4.393,4.139-4.393,9.219" transform="translate(-222.937 -96.158)"/>
      <path id="Path_383" data-name="Path 383" d="M298.842,130.163a10.642,10.642,0,0,1-7.681-2.819,10.423,10.423,0,0,1-2.865-7.634,11.95,11.95,0,0,1,2.8-8.232,10.193,10.193,0,0,1,7.784-3.131c6.585,0,10.676,3.992,10.676,10.417,0,6.925-4.207,11.4-10.718,11.4m.042-21.659a10.038,10.038,0,0,0-7.667,3.08,11.8,11.8,0,0,0-2.764,8.126,10.268,10.268,0,0,0,2.819,7.522,10.484,10.484,0,0,0,7.57,2.775c6.416,0,10.561-4.413,10.561-11.243,0-6.328-4.031-10.259-10.519-10.259m-.039,19.727c-1.905,0-4.174-1.5-4.174-8.651a18.363,18.363,0,0,1,.894-6.544c.724-1.828,1.929-2.754,3.578-2.754,2.569,0,4.042,2.839,4.042,7.791,0,3.019-.423,10.052-4.34,10.157m.3-17.792c-2.944,0-4.315,2.9-4.315,9.141,0,7.019,2.183,8.494,4.014,8.494,1.257-.033,4.186-1.075,4.186-10,0-2.3-.379-7.635-3.885-7.635" transform="translate(-222.923 -96.144)"/>
      <path id="Path_384" data-name="Path 384" d="M306.461,105.467a2.145,2.145,0,0,0-.112-2.691H292.6a2.774,2.774,0,0,0,0,2.691Z" transform="translate(-223.512 -95.316)"/>
      <path id="Path_385" data-name="Path 385" d="M306.486,105.532H292.539l-.022-.044a2.877,2.877,0,0,1,0-2.768l.023-.036h13.827l.023.026a2.236,2.236,0,0,1,.115,2.791Zm-13.851-.157h13.774a2.059,2.059,0,0,0-.112-2.534H292.632a2.731,2.731,0,0,0,0,2.534" transform="translate(-223.499 -95.302)"/>
      <path id="Path_386" data-name="Path 386" d="M400.051,128.779a10.873,10.873,0,0,1-3.876,1.16,4.461,4.461,0,0,1-4.26-3.139,6.34,6.34,0,0,1-5.516,3.139c-3.533,0-6.158-1.932-6.158-5.681,0-4.093,2.5-5.3,7.881-6.593a10.251,10.251,0,0,0,3.145-1.116,2.088,2.088,0,0,0,.648-1.681,4.164,4.164,0,0,0-4.093-3.793c-2.755,0-5,1.9-5.259,2.672h-.3a2.523,2.523,0,0,1-.562-2.587,12.249,12.249,0,0,1,7.966-2.882c3.621,0,8.186,1.464,8.186,5.77v11.72c0,1.593.471,2.109,2.193,2.023a.865.865,0,0,1,0,.988m-8.135-10.509c-1.078.472-3.019.863-4.263,1.854a4.237,4.237,0,0,0-1.379,3.574c0,1.592.512,3.447,2.361,3.447,2.633,0,3.19-2.546,3.281-4.7Z" transform="translate(-236.6 -96.134)"/>
      <path id="Path_387" data-name="Path 387" d="M396.162,130a4.507,4.507,0,0,1-4.275-3.036,6.4,6.4,0,0,1-5.5,3.036c-3.847,0-6.237-2.206-6.237-5.76,0-4.074,2.45-5.349,7.94-6.669l.081-.02a9.906,9.906,0,0,0,3.042-1.088,1.991,1.991,0,0,0,.611-1.613c0-2.092-2.158-3.716-4.014-3.716-2.819,0-4.956,1.947-5.185,2.62l-.018.053h-.387l-.024-.026a2.624,2.624,0,0,1-.575-2.671l.018-.026a12.28,12.28,0,0,1,8.02-2.9,11.484,11.484,0,0,1,5.491,1.28,5.062,5.062,0,0,1,2.775,4.568v11.719c0,1.615.485,2.025,2.11,1.946l.041,0,.025.031a.954.954,0,0,1,.005,1.079l-.013.02-.02.009a10.25,10.25,0,0,1-3.91,1.167m-4.243-3.405.058.161a4.38,4.38,0,0,0,4.186,3.087,10.053,10.053,0,0,0,3.822-1.142.785.785,0,0,0,.014-.846c-1.685.073-2.232-.421-2.232-2.1V114.034a4.856,4.856,0,0,0-2.7-4.432,11.331,11.331,0,0,0-5.413-1.26,12.128,12.128,0,0,0-7.9,2.849,2.474,2.474,0,0,0,.53,2.464h.207c.359-.858,2.627-2.673,5.314-2.673,1.929,0,4.171,1.691,4.171,3.872a2.168,2.168,0,0,1-.673,1.738,10,10,0,0,1-3.1,1.115l-.08.02c-5.514,1.325-7.82,2.523-7.82,6.516,0,3.456,2.329,5.6,6.08,5.6a6.236,6.236,0,0,0,5.446-3.1Zm-3.3.61c-2.2,0-2.441-2.465-2.441-3.524a4.355,4.355,0,0,1,1.409-3.635,10.087,10.087,0,0,1,3.1-1.436c.441-.147.857-.286,1.185-.43l.11-.048v4.3c-.135,3.214-1.233,4.775-3.358,4.775m3.2-8.833c-.314.129-.691.255-1.088.386a10,10,0,0,0-3.048,1.411,4.218,4.218,0,0,0-1.348,3.512c0,1.012.222,3.368,2.283,3.368,2.023,0,3.07-1.512,3.2-4.622Z" transform="translate(-236.587 -96.12)"/>
      <path id="Path_388" data-name="Path 388" d="M415.535,127.506a13.156,13.156,0,0,1-4.476.987c-4.478,0-5.469-2.969-5.469-6.976V109.973h-2.929a3.679,3.679,0,0,1,0-2.756h2.929V99.9a10.166,10.166,0,0,1,5.943-2.261v9.579H415.2a3.868,3.868,0,0,1,0,2.756h-3.663V122.25c0,2.972.2,3.9,4,3.574a1.828,1.828,0,0,1,0,1.682" transform="translate(-239.895 -94.551)"/>
      <path id="Path_389" data-name="Path 389" d="M411.044,128.556c-4.888,0-5.547-3.566-5.547-7.054V110.037h-2.9l-.02-.048a3.717,3.717,0,0,1,0-2.819l.02-.046h2.9V99.851l.023-.024a10.367,10.367,0,0,1,5.991-2.283l.086-.009v9.588h3.636l.02.049a3.9,3.9,0,0,1,0,2.817l-.021.047H411.6v12.2c0,2.53.1,3.556,2.664,3.556.361,0,.771-.02,1.253-.06l.051,0,.026.045a1.887,1.887,0,0,1,0,1.76l-.014.023-.025.009a13.142,13.142,0,0,1-4.5.993M402.7,109.88h2.956V121.5c0,6.079,2.724,6.9,5.389,6.9a12.942,12.942,0,0,0,4.424-.973,1.73,1.73,0,0,0,.005-1.535c-.462.037-.86.056-1.212.056-2.707,0-2.821-1.138-2.821-3.713V109.88h3.688a3.83,3.83,0,0,0,0-2.6H411.44V97.71a10.319,10.319,0,0,0-5.785,2.208v7.363H402.7a3.635,3.635,0,0,0,0,2.6" transform="translate(-239.881 -94.536)"/>
      <path id="Path_390" data-name="Path 390" d="M250.462,100.552c-2.083.775-3.448,3.143-6.014,2.168-2.658-1.3-5.173-3.624-8.515-2.7-3.33,1.594-.936,10.882-5.415,7.155-3.236-2.851-6.671-6.189-10.641-7.74a8.185,8.185,0,0,0-1.739-.576,36.762,36.762,0,0,0-6.588-.351c-.046-.867,0-1.735-.019-2.55,6.87-1.7,12.743,4.736,19.562,1.352a9.329,9.329,0,0,1,9.869-.389c2.8,1.695,9.21-.055,9.537-.274Z" transform="translate(-211.504 -94.258)"/>
      <path id="Path_391" data-name="Path 391" d="M230.277,109.274c2.253,3.2,4.032,2.307,4.469,1.394s-.1-4.092.227-5.548a3.616,3.616,0,0,1,2.9-2.713c2.325-.243,3.94,1.3,5.929,1.931a5.7,5.7,0,0,0,3.362.781c1.055-.255,1.875-2.419,3.332-2.9.008,1.361-.034,3.586-.034,3.586a2.775,2.775,0,0,0-.983.863c-1.381,1.57-1.193,6.433-3.477,4.451-2.271-2.419-3.676-7.164-7.74-6.387-2.9.986-.78,7.6-.673,9.124a4.455,4.455,0,0,1-1.842,4.415,1.955,1.955,0,0,1-2.323,0c-2.85-2.8-4.971-6.947-8.318-9.091a17.915,17.915,0,0,0-13.59-1.943c-.009-1.587.035-3.521.018-5.245,8.2-2.98,17.527,5.555,18.743,7.279" transform="translate(-211.502 -95.106)"/>
      <path id="Path_392" data-name="Path 392" d="M211.523,130.114l.008-17.795c4.891-1.833,10.563-.443,14.444,2.326,3.823,2.9,7.112,9,12.579,7.155,2.2-.953,1.886-3.774,1.55-5.806-.376-2.04-2.179-4.545-1.937-6.964a1.218,1.218,0,0,1,1.57-.83c3.343.938,3.794,4.36,6.172,6.243,2.706,1.487,2.641-4.055,4.575-6.19l.006,21.883Z" transform="translate(-211.503 -96.114)"/>
    </g>
  </g>
</svg>
