<svg id="Icon_Cart" xmlns="http://www.w3.org/2000/svg" width="54.341" height="40.494" viewBox="0 0 54.341 40.494">
  <path id="Path_396" data-name="Path 396" d="M931.746,1180.725a1.854,1.854,0,0,0-1.447-.7l-38.93-.044-1.187-4.537a1.849,1.849,0,0,0-1.791-1.382h-8.733a1.851,1.851,0,1,0,0,3.7h7.3l1.176,4.5c.008.029.014.055.021.082l5.067,19.365a1.851,1.851,0,0,0,1.791,1.382h30.819a1.854,1.854,0,0,0,1.8-1.435l4.461-19.36A1.858,1.858,0,0,0,931.746,1180.725Zm-7.384,18.661H896.446l-4.108-15.7,35.632.041Z" transform="translate(-877.807 -1174.063)" fill="#1a1818"/>
  <ellipse id="Ellipse_21" data-name="Ellipse 21" cx="3.709" cy="3.733" rx="3.709" ry="3.733" transform="translate(18.043 33.028)" fill="#1a1818"/>
  <ellipse id="Ellipse_22" data-name="Ellipse 22" cx="3.709" cy="3.733" rx="3.709" ry="3.733" transform="translate(40.412 33.028)" fill="#1a1818"/>
</svg>
