<svg id="Icon_IG" xmlns="http://www.w3.org/2000/svg" width="34" height="34" viewBox="0 0 34 34">
  <g id="Group_1609" data-name="Group 1609" transform="translate(-402.796 -245.267)">
    <path id="Path_399" data-name="Path 399" d="M427.834,245.267H411.757a9.085,9.085,0,0,0-8.961,9.153v15.694a9.085,9.085,0,0,0,8.961,9.153h16.077a9.086,9.086,0,0,0,8.962-9.153V254.42A9.086,9.086,0,0,0,427.834,245.267Zm5.918,24.62a6.29,6.29,0,0,1-6.2,6.337H412.043a6.29,6.29,0,0,1-6.2-6.337v-15.24a6.29,6.29,0,0,1,6.2-6.337h15.505a6.29,6.29,0,0,1,6.2,6.337Z"/>
    <path id="Path_400" data-name="Path 400" d="M419.793,253.539a8.732,8.732,0,1,0,8.549,8.73A8.64,8.64,0,0,0,419.793,253.539Zm0,14.363a5.634,5.634,0,1,1,5.516-5.633A5.575,5.575,0,0,1,419.793,267.9Z"/>
    <ellipse id="Ellipse_24" data-name="Ellipse 24" cx="1.93" cy="1.971" rx="1.93" ry="1.971" transform="translate(426.871 251.098)"/>
  </g>
</svg>
