<svg xmlns="http://www.w3.org/2000/svg" width="40.469" height="35.553" viewBox="0 0 40.469 35.553">
  <path id="Icon_Expeditions" d="M773.173,1457.265a1.329,1.329,0,0,0-1.341.031l-11.082,6.858-13.11-6.9c-.011-.006-.025-.008-.037-.014a1.38,1.38,0,0,0-.253-.094l-.042-.013a1.36,1.36,0,0,0-.283-.032l-.027,0c-.026,0-.052.006-.079.008a1.339,1.339,0,0,0-.231.038c-.032.009-.062.019-.092.029a1.35,1.35,0,0,0-.219.1c-.016.01-.034.013-.049.023l-12.314,7.631a1.325,1.325,0,0,0-.627,1.127v25.272a1.325,1.325,0,0,0,1.989,1.146l11.679-6.764,12.837,6.789c.014.007.029.01.042.016a1.328,1.328,0,0,0,.2.078c.026.008.052.019.079.024a1.3,1.3,0,0,0,.3.036,1.275,1.275,0,0,0,.326-.046.8.8,0,0,0,.082-.025,1.336,1.336,0,0,0,.252-.112.45.45,0,0,0,.042-.019l12.02-7.507a1.324,1.324,0,0,0,.623-1.123v-25.4A1.322,1.322,0,0,0,773.173,1457.265Zm-24.826,3.352,10.837,5.706v22.8l-10.837-5.731Zm-12.314,6.174,9.664-5.989v22.628l-9.664,5.6Zm35.17,16.293-9.37,5.853V1466.6l9.37-5.8Z" transform="translate(-733.384 -1457.097)" fill="#8dc641"/>
</svg>
