<svg xmlns="http://www.w3.org/2000/svg" width="33.863" height="22.933" viewBox="0 0 33.863 22.933">
  <path id="Icon_Email" d="M192.05,885.325a1.16,1.16,0,0,0-.543-.393,2.707,2.707,0,0,0-1.342-.365H161.8a2.752,2.752,0,0,0-2.749,2.749v17.436A2.752,2.752,0,0,0,161.8,907.5h28.365a2.752,2.752,0,0,0,2.749-2.749V887.316A2.735,2.735,0,0,0,192.05,885.325Zm-4.377,1.6-11.7,7.8-11.925-7.8Zm2.492,18.221H161.8a.4.4,0,0,1-.393-.393V888.009l13.93,9.117a1.178,1.178,0,0,0,1.3-.005l13.922-9.29v16.92A.4.4,0,0,1,190.165,905.144Z" transform="translate(-159.051 -884.567)"/>
</svg>
