<svg xmlns="http://www.w3.org/2000/svg" width="31.446" height="43.812" viewBox="0 0 31.446 43.812">
  <path id="Icon_Account" d="M27.906,43.812c-.915-7.935-4.142-14.6-12.183-14.6s-11.27,6.669-12.184,14.6H0c1.163-9.9,5.716-18.255,15.724-18.255s14.559,8.352,15.722,18.255ZM15.724,21.906a10.827,10.827,0,0,1-10.7-10.953A10.828,10.828,0,0,1,15.724,0a10.829,10.829,0,0,1,10.7,10.953A10.828,10.828,0,0,1,15.724,21.906Zm0-18.255a7.219,7.219,0,0,0-7.132,7.3,7.218,7.218,0,0,0,7.132,7.3,7.218,7.218,0,0,0,7.132-7.3A7.219,7.219,0,0,0,15.724,3.651Z" fill-rule="evenodd"/>
</svg>
