<svg xmlns="http://www.w3.org/2000/svg" width="28.712" height="23.927" viewBox="0 0 28.712 23.927">
  <path id="Icon_Twitter" d="M219.79,247.431a11.618,11.618,0,0,1-3.743,1.464,5.809,5.809,0,0,0-4.3-1.907,5.967,5.967,0,0,0-5.889,6.041,6.166,6.166,0,0,0,.152,1.375,16.581,16.581,0,0,1-12.143-6.313,6.152,6.152,0,0,0-.8,3.041,6.08,6.08,0,0,0,2.62,5.026,5.776,5.776,0,0,1-2.67-.753v.074a6.005,6.005,0,0,0,4.728,5.922,5.612,5.612,0,0,1-1.552.213,5.753,5.753,0,0,1-1.109-.107,5.914,5.914,0,0,0,5.5,4.193,11.634,11.634,0,0,1-7.316,2.587,11.9,11.9,0,0,1-1.406-.083,16.4,16.4,0,0,0,9.03,2.711c10.837,0,16.76-9.2,16.76-17.185,0-.263,0-.525-.015-.783a12.087,12.087,0,0,0,2.937-3.126,11.511,11.511,0,0,1-3.382.95A6.027,6.027,0,0,0,219.79,247.431Z" transform="translate(-191.869 -246.989)"/>
</svg>
