<svg id="Icon_Education" xmlns="http://www.w3.org/2000/svg" width="26.062" height="38.5" viewBox="0 0 26.062 38.5">
  <path id="Path_1067" data-name="Path 1067" d="M1343.706,1611.233a13.031,13.031,0,0,0-26.062,0,12.826,12.826,0,0,0,6.665,11.622v4.069a1.325,1.325,0,0,0,1.325,1.325h10.244a1.325,1.325,0,0,0,1.325-1.325v-4.373C1340.335,1620.93,1343.706,1617.689,1343.706,1611.233Zm-8.364,9.275a1.322,1.322,0,0,0-.774,1.377,1.343,1.343,0,0,0-.016.161v3.553h-7.594v-3.553a2.133,2.133,0,0,0-1.109-1.383c-3.375-1.506-5.556-5.207-5.556-9.43a10.382,10.382,0,0,1,20.763,0C1341.057,1615.711,1339.134,1618.831,1335.342,1620.508Z" transform="translate(-1317.644 -1598.202)" fill="#8dc641"/>
  <path id="Path_1068" data-name="Path 1068" d="M1336.476,1634.1h-9.96a1.325,1.325,0,1,0,0,2.649h9.96a1.325,1.325,0,1,0,0-2.649Z" transform="translate(-1318.526 -1602.398)" fill="#8dc641"/>
  <path id="Path_1069" data-name="Path 1069" d="M1334.37,1638.8h-5.692a1.325,1.325,0,1,0,0,2.649h5.692a1.325,1.325,0,1,0,0-2.649Z" transform="translate(-1318.779 -1602.947)" fill="#8dc641"/>
</svg>
