<svg id="Icon_Pinterest" xmlns="http://www.w3.org/2000/svg" width="23.655" height="29.802" viewBox="0 0 23.655 29.802">
  <path id="Path_1016" data-name="Path 1016" d="M312.441,472.6c-8.4,0-12.546,5.831-12.546,10.692,0,2.945,1.053,5.564,3.524,6.542a.614.614,0,0,0,.886-.43c.081-.3.275-1.059.362-1.374a.812.812,0,0,0-.255-.954,4.843,4.843,0,0,1-1.167-3.356c0-4.327,3.344-8.2,8.71-8.2,4.751,0,7.36,2.809,7.36,6.561,0,4.937-2.256,9.393-5.608,9.393a2.9,2.9,0,0,1-2.792-3.589c.533-2.169,1.8-4.51,1.8-6.075,0-1.4-.869-2.257-2.621-2.257-2.181,0-3.339,1.581-3.339,4.119a7.2,7.2,0,0,0,.492,2.709s-2.1,7.908-2.275,9.327a34.3,34.3,0,0,0-.054,6.506.238.238,0,0,0,.421.1,18.173,18.173,0,0,0,3.194-5.6c.217-.761,1.243-4.706,1.243-4.706a5.333,5.333,0,0,0,4.322,2.451c5.686,0,9.456-5.334,9.456-12.049C323.55,477.327,319.2,472.6,312.441,472.6Z" transform="translate(-299.895 -472.599)"/>
</svg>
