<svg id="Icon_Blog" xmlns="http://www.w3.org/2000/svg" width="32.97" height="35.104" viewBox="0 0 32.97 35.104">
  <path id="Path_1064" data-name="Path 1064" d="M1057.016,1347.81H1026.7a1.325,1.325,0,1,0,0,2.649h30.321a1.325,1.325,0,1,0,0-2.649Z" transform="translate(-1025.371 -1315.355)" fill="#8dc641"/>
  <path id="Path_1065" data-name="Path 1065" d="M1026.779,1339.5h5.63a1.327,1.327,0,0,0,.937-.388l20.128-20.128a1.325,1.325,0,0,0,0-1.873l-5.667-5.667a1.327,1.327,0,0,0-.937-.388h0a1.324,1.324,0,0,0-.937.389l-20.091,20.165a1.323,1.323,0,0,0-.387.935v5.63A1.325,1.325,0,0,0,1026.779,1339.5Zm20.093-25.244,3.792,3.792-2.174,2.174-3.789-3.788ZM1028.1,1333.1l14.728-14.782,3.784,3.784-14.755,14.755H1028.1Z" transform="translate(-1025.381 -1311.06)" fill="#8dc641"/>
</svg>
