<svg xmlns="http://www.w3.org/2000/svg" width="33.941" height="33.73" viewBox="0 0 33.941 33.73">
  <path id="Icon_Printer" d="M623.3,1181.842h-4.849V1170.88a2.955,2.955,0,0,0-2.951-2.951H602.853a2.955,2.955,0,0,0-2.951,2.951v10.962h-4.638a2.955,2.955,0,0,0-2.951,2.951v9.276a2.954,2.954,0,0,0,2.951,2.951H599.9v1.686a2.955,2.955,0,0,0,2.951,2.951H615.5a2.955,2.955,0,0,0,2.951-2.951v-1.686H623.3a2.955,2.955,0,0,0,2.951-2.951v-9.276A2.955,2.955,0,0,0,623.3,1181.842Zm-20.871-10.962a.427.427,0,0,1,.422-.422H615.5a.427.427,0,0,1,.422.422v10.962H602.431Zm13.492,27.827a.427.427,0,0,1-.422.422H602.853a.427.427,0,0,1-.422-.422v-1.686h13.492Zm7.8-4.638a.427.427,0,0,1-.422.421H595.263a.427.427,0,0,1-.422-.421v-9.276a.427.427,0,0,1,.422-.422H623.3a.427.427,0,0,1,.422.422Z" transform="translate(-592.312 -1167.928)"/>
</svg>
