<?xml version="1.0" encoding="utf-8"?>
<!-- Generator: Adobe Illustrator 19.1.0, SVG Export Plug-In . SVG Version: 6.00 Build 0)  -->
<svg version="1.1" id="Layer_1" xmlns="http://www.w3.org/2000/svg" xmlns:xlink="http://www.w3.org/1999/xlink" x="0px" y="0px"
	 viewBox="-333 335 32 32" style="enable-background:new -333 335 32 32;" xml:space="preserve">
<path d="M-317,363c-6.1,0-11-4.9-11-11s4.9-11,11-11s11,4.9,11,11S-310.9,363-317,363z M-317,343c-5,0-9,4-9,9s4,9,9,9s9-4,9-9
	S-312,343-317,343z"/>
<path d="M-322,352h-2c0-3.9,3.1-7,7-7v2C-319.8,347-322,349.2-322,352z"/>
<path d="M-327,363h-6v-20h6v2h-4v16h4V363z"/>
<path d="M-301,363h-6v-2h4v-16h-4v-2h6V363z"/>
<path d="M-331,339h4v2h-4V339z"/>
</svg>
